<?xml version="1.0" encoding="utf-8"?>
<svg viewBox="0 0 512 512" width="512" height="512" xmlns="http://www.w3.org/2000/svg" xmlns:bx="https://boxy-svg.com">
  <g id="home" transform="matrix(21.355577, 0, 0, 23.352337, -44.045879, -71.808418)" bx:origin="-0.231233 -0.469601">
    <path id="XMLID_21_" class="st7" d="M23,25h-7c-0.6,0-1-0.4-1-1v-6h-2v6c0,0.6-0.4,1-1,1H5c-0.6,0-1-0.4-1-1v-9H3 c-0.4,0-0.8-0.3-0.9-0.6c-0.1-0.4,0-0.8,0.3-1.1l11-10c0.4-0.3,1-0.3,1.3,0l11,10c0.3,0.3,0.4,0.7,0.3,1.1c-0.2,0.3-0.6,0.6-1,0.6h-1v9C24,24.6,23.6,25,23,25z M17,23h5v-9c0-0.4,0.2-0.7,0.5-0.9L14,5.4l-8.5,7.8C5.8,13.3,6,13.6,6,14v9h5v-6c0-0.6,0.4-1,1-1h4 c0.6,0,1,0.4,1,1V23z"/>
  </g>
</svg>