<?xml version="1.0" encoding="utf-8"?>
<svg viewBox="0 0 500 500" width="500" height="500" xmlns="http://www.w3.org/2000/svg" xmlns:bx="https://boxy-svg.com">
  <g id="home" transform="matrix(21.355577, 0, 0, 23.352337, -43.095185, -67.942483)" bx:origin="-0.001857 -0.007551">
    <path id="XMLID_21_" class="st1" d="M23,25h-7c-0.6,0-1-0.4-1-1v-6h-2v6c0,0.6-0.4,1-1,1H5c-0.6,0-1-0.4-1-1v-9H3 c-0.4,0-0.8-0.3-0.9-0.6c-0.1-0.4,0-0.8,0.3-1.1l11-10c0.4-0.3,1-0.3,1.3,0l11,10c0.3,0.3,0.4,0.7,0.3,1.1c-0.2,0.3-0.6,0.6-1,0.6 h-1v9C24,24.6,23.6,25,23,25z M17,23h5v-9c0-0.4,0.2-0.7,0.5-0.9L14,5.4l-8.5,7.8C5.8,13.3,6,13.6,6,14v9h5v-6c0-0.6,0.4-1,1-1h4 c0.6,0,1,0.4,1,1V23z"/>
  </g>
</svg>