<?xml version="1.0" standalone="no"?>
<!DOCTYPE svg PUBLIC "-//W3C//DTD SVG 20010904//EN" "http://www.w3.org/TR/2001/REC-SVG-20010904/DTD/svg10.dtd">
<svg version="1.0" xmlns="http://www.w3.org/2000/svg" width="544.000000pt" height="841.000000pt" viewBox="0 0 544.000000 841.000000" preserveAspectRatio="xMidYMid meet">
    <metadata>
        Created by potrace 1.16, written by Peter Selinger 2001-2019
    </metadata>
    <g transform="translate(0.000000,841.000000) scale(0.100000,-0.100000)" fill="#000000" stroke="none">
        <path d="M2332 8376 c-83 -22 -188 -68 -323 -141 -26 -13 -90 -66 -142 -116 -74 -69 -114 -117 -167 -202 -38 -61 -70 -116 -70 -124 0 -7 -5 -13 -12 -13 -6 0 -9 -3 -5 -6 3 -4 0 -19 -9 -35 -8 -16 -25 -70 -39 -121 -22 -82 -25 -113 -25 -268 0 -177 3 -198 42 -325 35 -112 31 -112 155 0 59 54 133 121 163 149 30 29 132 121 225 206 94 84 220 200 282 257 l111 104 314 -182 c172 -100 383 -223 468 -272 85 -49 181 -107 212 -128 31 -22 59 -39 61 -39 11 0 27 136 27 231 0 112 -29 299 -55 364 -66 158 -168 308 -280 411 -90 82 -145 119 -280 184 -138 67 -208 82 -395 86 -150 4 -173 2 -258 -20z"/>
        <path d="M2094 7101 c-92 -57 -47 -201 63 -201 22 0 44 10 68 31 30 27 35 37 35 75 0 88 -93 141 -166 95z"/>
        <path d="M3165 7111 c-35 -15 -57 -49 -62 -95 -5 -42 -3 -48 31 -82 34 -34 40 -36 82 -31 54 6 91 37 100 84 16 86 -70 157 -151 124z"/>
        <path d="M2111 6070 c-48 -62 -60 -84 -53 -97 5 -10 42 -151 83 -313 40 -162 73 -296 74 -297 0 -1 82 38 183 88 l182 89 -48 74 c-203 316 -348 536 -353 536 -3 0 -34 -36 -68 -80z"/>
        <path d="M2903 6033 c-42 -65 -105 -163 -141 -218 -135 -207 -172 -265 -172 -273 0 -4 19 -18 43 -30 49 -25 142 -76 221 -121 l55 -32 21 73 c12 40 57 182 100 316 l78 243 -54 72 c-30 40 -54 75 -54 79 0 27 -30 -7 -97 -109z"/>
        <path d="M1519 3446 c-2 -2 -3 -779 -1 -1725 l2 -1721 585 0 585 0 0 43 0 42 -83 43 c-45 24 -167 86 -270 139 -180 92 -189 97 -184 122 3 14 17 100 31 191 73 462 90 569 139 855 30 171 59 351 65 400 6 50 32 209 57 355 26 146 59 337 74 425 30 173 41 179 41 20 0 -49 7 -166 15 -260 8 -93 17 -204 20 -245 3 -41 10 -122 15 -180 5 -58 12 -139 15 -180 3 -41 12 -147 19 -235 8 -88 14 -178 13 -201 0 -22 2 -45 5 -50 4 -5 9 -60 12 -122 3 -62 7 -116 10 -120 3 -5 8 -60 11 -123 4 -63 13 -179 21 -259 7 -80 13 -163 13 -185 -1 -22 0 -138 0 -257 l1 -218 590 0 590 0 0 43 0 43 -82 41 c-46 23 -117 60 -158 82 -41 22 -119 62 -172 88 -145 71 -132 46 -114 225 9 84 16 176 16 203 0 28 38 457 84 955 47 498 97 1042 111 1210 14 168 32 362 39 433 l12 127 -1061 0 c-584 0 -1064 -2 -1066 -4z"/>
    </g>
</svg>
