<?xml version="1.0" standalone="no"?>
<!DOCTYPE svg PUBLIC "-//W3C//DTD SVG 20010904//EN" "http://www.w3.org/TR/2001/REC-SVG-20010904/DTD/svg10.dtd">
<svg version="1.0" xmlns="http://www.w3.org/2000/svg" width="32.000000pt" height="32.000000pt" viewBox="0 0 96.000000 96.000000" preserveAspectRatio="xMidYMid meet">
    <metadata>
        Created by potrace 1.16, written by Peter Selinger 2001-2019
    </metadata>
    <g transform="translate(0.000000,96.000000) scale(0.100000,-0.100000)" fill="#000000" stroke="none">
        <path d="M339 951 c-61 -20 -157 -79 -205 -128 -32 -32 -67 -82 -91 -129 -33 -68 -38 -89 -42 -161 -3 -71 -1 -84 14 -90 33 -12 50 11 57 80 13 116 70 215 166 287 223 166 549 58 633 -209 97 -314 -199 -608 -513 -511 -62 19 -178 91 -178 111 0 5 -11 9 -25 9 -31 0 -50 -32 -36 -59 13 -24 90 -80 161 -117 53 -28 60 -29 200 -29 l145 0 75 40 c99 53 169 124 217 221 l38 78 0 136 0 136 -38 78 c-48 97 -118 168 -217 221 l-75 40 -130 2 c-72 1 -142 -2 -156 -6z"/>
        <path d="M332 719 l-22 -8 2 -233 3 -233 27 -3 c17 -2 46 8 75 25 26 15 60 35 74 43 226 127 249 143 249 170 0 24 -17 36 -157 117 -87 50 -174 100 -193 111 -26 15 -41 18 -58 11z m179 -171 c60 -35 109 -65 109 -68 0 -6 -214 -130 -224 -130 -3 0 -6 58 -6 130 0 72 3 130 6 130 4 0 55 -28 115 -62z"/>
    </g>
</svg>
