<?xml version="1.0" encoding="utf-8"?>
<svg viewBox="0 0 512 512" width="512" height="512" xmlns="http://www.w3.org/2000/svg">
  <g id="pause" transform="matrix(23.272728, 0, 0, 23.272728, -67.4909, -7891.781906)">
    <g id="XMLID_167_">
      <path id="XMLID_168_" class="st1" d="M13.9,361.1c-6.1,0-11-4.9-11-11s4.9-11,11-11s11,4.9,11,11S20,361.1,13.9,361.1z M13.9,341.1c-5,0-9,4-9,9s4,9,9,9s9-4,9-9S18.9,341.1,13.9,341.1z"/>
    </g>
    <g id="XMLID_165_">
      <path id="XMLID_166_" class="st1" d="M11,354c-0.6,0-1-0.4-1-1v-6c0-0.6,0.4-1,1-1s1,0.4,1,1v6C12,353.6,11.6,354,11,354z"/>
    </g>
    <g id="XMLID_163_">
      <path id="XMLID_164_" class="st1" d="M17,354c-0.6,0-1-0.4-1-1v-6c0-0.6,0.4-1,1-1s1,0.4,1,1v6C18,353.6,17.6,354,17,354z"/>
    </g>
  </g>
</svg>