<?xml version="1.0" standalone="no"?>
<!DOCTYPE svg PUBLIC "-//W3C//DTD SVG 20010904//EN"
 "http://www.w3.org/TR/2001/REC-SVG-20010904/DTD/svg10.dtd">
<svg version="1.0" xmlns="http://www.w3.org/2000/svg" width="512.000000pt" height="512.000000pt" viewBox="0 0 512.000000 512.000000" preserveAspectRatio="xMidYMid meet">
    <g transform="translate(0.000000,512.000000) scale(0.100000,-0.100000)" fill="#980000" stroke="none">
        <path d="M2265 5109 c-487 -60 -916 -239 -1310 -547 -104 -82 -350 -334 -431 -442 -267 -357 -434 -745 -501 -1170 -26 -164 -26 -616 0 -780 147 -925 780 -1697 1660 -2021 270 -99 496 -140 818 -146 261 -6 406 7 619 54 937 206 1703 954 1928 1883 58 239 67 319 67 620 0 218 -4 298 -18 385 -97 585 -352 1071 -772 1473 -397 379 -899 617 -1448 687 -129 16 -491 19 -612 4z m550 -320 c745 -77 1440 -573 1770 -1264 258 -542 288 -1183 80 -1741 -297 -794 -1005 -1350 -1850 -1454 -116 -14 -394 -14 -510 0 -1041 128 -1847 934 -1975 1973 -6 49 -11 165 -11 257 0 248 28 437 97 659 218 700 768 1256 1464 1479 301 96 600 125 935 91z"/>
        <path d="M1990 2535 l0 -995 160 0 160 0 0 995 0 995 -160 0 -160 0 0 -995z"/>
        <path d="M2810 2535 l0 -995 160 0 160 0 0 995 0 995 -160 0 -160 0 0 -995z"/>
    </g>
</svg>
