<?xml version="1.0" encoding="utf-8"?>
<svg viewBox="0 0 512 512" width="512" height="512" xmlns="http://www.w3.org/2000/svg">
  <g id="pause-on" fill="#980000" transform="matrix(23.272728, 0, 0, 23.272728, -719.127335, -7891.781906)">
    <path id="XMLID_171_" class="st0" d="M41.9,339.1c-6.1,0-11,4.9-11,11s4.9,11,11,11s11-4.9,11-11S48,339.1,41.9,339.1z M40,353 c0,0.6-0.4,1-1,1s-1-0.4-1-1v-6c0-0.6,0.4-1,1-1s1,0.4,1,1V353z M46,353c0,0.6-0.4,1-1,1s-1-0.4-1-1v-6c0-0.6,0.4-1,1-1s1,0.4,1,1V353z"/>
  </g>
</svg>