<?xml version="1.0" standalone="no"?>
<!DOCTYPE svg PUBLIC "-//W3C//DTD SVG 20010904//EN"
 "http://www.w3.org/TR/2001/REC-SVG-20010904/DTD/svg10.dtd">
<svg version="1.0" xmlns="http://www.w3.org/2000/svg" width="512.000000pt" height="512.000000pt" viewBox="0 0 512.000000 512.000000" preserveAspectRatio="xMidYMid meet">
    <g transform="translate(0.000000,512.000000) scale(0.100000,-0.100000)" fill="#980000" stroke="none">
        <path d="M2240 5105 c-1000 -124 -1842 -833 -2134 -1799 -41 -132 -81 -333 -96 -468 -13 -125 -13 -431 0 -556 108 -1015 824 -1879 1804 -2176 132 -41 333 -81 468 -96 125 -13 431 -13 556 0 1015 108 1879 824 2176 1804 74 243 106 468 106 746 0 99 -5 224 -10 278 -108 1015 -824 1879 -1804 2176 -132 41 -333 81 -468 96 -131 14 -469 11 -598 -5z m650 -270 c498 -75 931 -295 1291 -654 362 -362 577 -790 656 -1301 24 -158 24 -482 0 -640 -79 -511 -294 -939 -656 -1301 -362 -362 -790 -577 -1301 -656 -158 -24 -482 -24 -640 0 -511 79 -939 294 -1301 656 -362 362 -577 790 -656 1301 -24 158 -24 482 0 640 79 511 294 939 656 1301 398 397 879 620 1451 673 89 8 397 -4 500 -19z"/>
        <path d="M1925 3792 c-51 -24 -78 -54 -107 -117 l-23 -50 0 -1065 0 -1065 24 -53 c61 -134 197 -169 351 -90 113 59 1443 936 1492 984 65 64 92 122 96 212 4 66 1 79 -27 137 -19 38 -50 80 -76 103 -55 48 -1408 939 -1493 983 -79 41 -177 50 -237 21z m862 -744 c343 -225 632 -422 643 -435 27 -34 26 -86 -2 -117 -30 -32 -1257 -833 -1290 -841 -18 -5 -33 0 -54 18 l-29 25 0 862 0 862 29 25 c21 18 35 23 55 18 14 -4 306 -191 648 -417z"/>
    </g>
</svg>
