<?xml version="1.0" encoding="utf-8"?>
<svg version="1.1" id="Generic" xmlns="http://www.w3.org/2000/svg" xmlns:xlink="http://www.w3.org/1999/xlink" x="0px" y="0px" width="512px" height="512px" viewBox="0 0 512 512" style="enable-background:new 0 0 512 512;" xml:space="preserve" preserveAspectRatio="none">
    <g id="play_1_">
    	<g id="XMLID_156_">
    		<path id="XMLID_157_" class="st1" d="M13.9,333.1c-6.1,0-11-4.9-11-11s4.9-11,11-11s11,4.9,11,11S20,333.1,13.9,333.1z M13.9,313.1c-5,0-9,4-9,9s4,9,9,9s9-4,9-9S18.9,313.1,13.9,313.1z"/>
    	</g>
    	<g id="XMLID_152_">
    		<path id="XMLID_153_" class="st1" d="M12,327c-0.2,0-0.3,0-0.5-0.1c-0.3-0.2-0.5-0.5-0.5-0.9v-8c0-0.4,0.2-0.7,0.5-0.9 c0.3-0.2,0.7-0.2,1,0.1l6,4.1c0.3,0.2,0.4,0.5,0.4,0.8s-0.2,0.6-0.5,0.8l-6,3.9C12.4,326.9,12.2,327,12,327z M13,319.9v4.3 l3.2-2.1L13,319.9z"/>
    	</g>
    </g>
</svg>